<?xml version="1.0"?>
<svg xmlns="http://www.w3.org/2000/svg" viewBox="0 0 64 64" width="512" height="512"><g id="Computer-File"><path d="M30,41H3v4a4,4,0,0,0,4,4H49a4,4,0,0,0,4-4V41Z" style="fill:#acabb1"/><path d="M53,15V41H3V15a4,4,0,0,1,4-4H49A4,4,0,0,1,53,15Z" style="fill:#78b9eb"/><path d="M40,9V37H13a1,1,0,0,1-1-1V4a1,1,0,0,1,1-1H34V8a1,1,0,0,0,1,1Z" style="fill:#ffe477"/><polygon points="30.54 41 30.34 41.26 30 41 30.54 41" style="fill:#78b9eb"/><polygon points="53.07 18.48 53 18.53 53 18.39 53.07 18.48" style="fill:#78b9eb"/><path d="M39,58v3H17V58a1,1,0,0,1,1-1H38A1,1,0,0,1,39,58Z" style="fill:#787680"/><polygon points="36 57 20 57 21 49 35 49 36 57" style="fill:#898890"/><path d="M40,9H35a1,1,0,0,1-1-1V3Z" style="fill:#ffcd00"/><polygon points="40 13 40 37 16 37 40 13" style="fill:#ffd422"/><path d="M56.47,35.65a12.589,12.589,0,0,1-1.07,2.6l2.74,3.65L53.9,46.14,50.25,43.4a12.589,12.589,0,0,1-2.6,1.07L47,49H41l-.65-4.53a12.589,12.589,0,0,1-2.6-1.07L34.1,46.14,29.86,41.9l.48-.64,2.26-3.01A13.076,13.076,0,0,1,32,37a12.671,12.671,0,0,1-.47-1.35L27,35V29l4.53-.65a12.589,12.589,0,0,1,1.07-2.6L29.86,22.1l4.24-4.24,3.65,2.74a12.589,12.589,0,0,1,2.6-1.07l.49-3.41L41,15h6l.65,4.53a12.589,12.589,0,0,1,2.6,1.07l2.82-2.12.83-.62,4.24,4.24L55.4,25.75a12.589,12.589,0,0,1,1.07,2.6L61,29v6Z" style="fill:#ffa733"/><circle cx="44" cy="32" r="7" style="fill:#ff6243"/><polygon points="35.25 51 20.75 51 21 49 35 49 35.25 51" style="fill:#787680"/><path d="M40,58a2,2,0,0,0-2-2H36.883l-.75-6H38V48H7a3,3,0,0,1-3-3V42H27V40H4V15a3,3,0,0,1,3-3h4V36a2,2,0,0,0,2,2H24V36H13V4H33V8a2,2,0,0,0,2,2h4v2H49a3,3,0,0,1,3,3h2a5.006,5.006,0,0,0-5-5H41V9a1,1,0,0,0-.293-.707l-6-6A1,1,0,0,0,34,2H13a2,2,0,0,0-2,2v6H7a5.006,5.006,0,0,0-5,5V45a5.006,5.006,0,0,0,5,5H19.867l-.75,6H18a2,2,0,0,0-2,2v2H14v2H42V60H40ZM35,5.414,37.586,8H35ZM21.883,50H34.117l.75,6H21.133ZM18,60V58H38v2Z"/><rect x="16" y="8" width="4" height="2"/><rect x="22" y="8" width="8" height="2"/><rect x="16" y="14" width="14" height="2"/><rect x="16" y="20" width="2" height="2"/><rect x="20" y="20" width="6" height="2"/><rect x="16" y="26" width="8" height="2"/><path d="M61.141,28.01l-3.906-.558a13.905,13.905,0,0,0-.657-1.6L58.942,22.7a1,1,0,0,0-.093-1.306L54.606,17.15a1,1,0,0,0-1.307-.092l-3.152,2.364a14,14,0,0,0-1.6-.657l-.558-3.907A1,1,0,0,0,47,14H41a1,1,0,0,0-.99.858l-.558,3.907a14,14,0,0,0-1.6.657L34.7,17.058a1,1,0,0,0-1.307.092l-4.243,4.244a1,1,0,0,0-.093,1.306l2.364,3.154a13.905,13.905,0,0,0-.657,1.6l-3.906.558A1,1,0,0,0,26,29v6a1,1,0,0,0,.859.99l3.906.558a13.921,13.921,0,0,0,.657,1.6L29.058,41.3a1,1,0,0,0,.093,1.306l4.243,4.244a1,1,0,0,0,1.307.092l3.152-2.364a14,14,0,0,0,1.6.657l.558,3.907A1,1,0,0,0,41,50h6a1,1,0,0,0,.99-.858l.558-3.907a14,14,0,0,0,1.6-.657L53.3,46.942a1,1,0,0,0,1.307-.092l4.243-4.244a1,1,0,0,0,.093-1.306l-2.364-3.153a13.921,13.921,0,0,0,.657-1.6l3.906-.558A1,1,0,0,0,62,35V29A1,1,0,0,0,61.141,28.01ZM60,34.133l-3.669.523a1,1,0,0,0-.819.71,11.9,11.9,0,0,1-.987,2.4,1,1,0,0,0,.077,1.081l2.22,2.961-3.016,3.016L50.845,42.6a1,1,0,0,0-1.081-.077,11.939,11.939,0,0,1-2.4.987,1,1,0,0,0-.71.818L46.133,48H41.867l-.524-3.67a1,1,0,0,0-.71-.818,11.939,11.939,0,0,1-2.4-.987,1,1,0,0,0-1.081.077l-2.961,2.22-3.016-3.016,2.22-2.961a1,1,0,0,0,.077-1.081,11.9,11.9,0,0,1-.987-2.4,1,1,0,0,0-.819-.71L28,34.133V29.867l3.669-.523a1,1,0,0,0,.819-.71,12,12,0,0,1,.987-2.4,1,1,0,0,0-.077-1.081l-2.22-2.961,3.016-3.016,2.961,2.22a1,1,0,0,0,1.081.077,11.939,11.939,0,0,1,2.4-.987,1,1,0,0,0,.71-.818L41.867,16h4.266l.524,3.67a1,1,0,0,0,.71.818,11.939,11.939,0,0,1,2.4.987,1,1,0,0,0,1.081-.077l2.961-2.22,3.016,3.016L54.6,25.155a1,1,0,0,0-.077,1.081,12,12,0,0,1,.987,2.4,1,1,0,0,0,.819.71L60,29.867Z"/><rect x="43" y="18" width="2" height="2"/><rect x="33.808" y="21.808" width="2" height="2" transform="translate(-5.933 31.293) rotate(-45)"/><rect x="33.808" y="40.192" width="2" height="2" transform="translate(-18.932 36.678) rotate(-45)"/><rect x="43" y="44" width="2" height="2"/><rect x="52.192" y="40.192" width="2" height="2" transform="translate(-13.548 49.678) rotate(-45)"/><rect x="52.192" y="21.808" width="2" height="2" transform="translate(-0.548 44.293) rotate(-45)"/><path d="M44,24a8,8,0,1,0,8,8A8.009,8.009,0,0,0,44,24Zm0,14a6,6,0,1,1,6-6A6.006,6.006,0,0,1,44,38Z"/><rect x="30" y="31" width="2" height="2"/><rect x="56" y="31" width="2" height="2"/></g></svg>
